<?xml version="1.0" encoding="UTF-8" standalone="no"?>
<!-- Created with Inkscape (http://www.inkscape.org/) -->

<svg
   xmlns:dc="http://purl.org/dc/elements/1.1/"
   xmlns:cc="http://creativecommons.org/ns#"
   xmlns:rdf="http://www.w3.org/1999/02/22-rdf-syntax-ns#"
   xmlns:svg="http://www.w3.org/2000/svg"
   xmlns="http://www.w3.org/2000/svg"
   xmlns:sodipodi="http://sodipodi.sourceforge.net/DTD/sodipodi-0.dtd"
   xmlns:inkscape="http://www.inkscape.org/namespaces/inkscape"
   version="1.0"
   width="672.24414"
   height="630.20526"
   viewBox="0 0 671.1256 629.15562"
   id="Layer_1"
   xml:space="preserve"
   sodipodi:version="0.32"
   inkscape:version="0.48.0 r9654"
   sodipodi:docname="interstate-2.svg"
   inkscape:output_extension="org.inkscape.output.svg.inkscape"
   sodipodi:modified="true"><metadata
   id="metadata36"><rdf:RDF><cc:Work
       rdf:about=""><dc:format>image/svg+xml</dc:format><dc:type
         rdf:resource="http://purl.org/dc/dcmitype/StillImage" /></cc:Work></rdf:RDF></metadata><sodipodi:namedview
   inkscape:window-height="949"
   inkscape:window-width="1272"
   inkscape:pageshadow="2"
   inkscape:pageopacity="0.0"
   guidetolerance="10.0"
   gridtolerance="10.0"
   objecttolerance="10.0"
   borderopacity="1.0"
   bordercolor="#666666"
   pagecolor="#ffffff"
   id="base"
   width="601px"
   height="601px"
   inkscape:zoom="0.60736758"
   inkscape:cx="304.24902"
   inkscape:cy="250.0079"
   inkscape:window-x="0"
   inkscape:window-y="25"
   inkscape:current-layer="Layer_1"
   showgrid="false"
   fit-margin-top="0"
   fit-margin-left="0"
   fit-margin-right="0"
   fit-margin-bottom="0"
   inkscape:window-maximized="0" /><defs
   id="defs1659"><inkscape:perspective
   sodipodi:type="inkscape:persp3d"
   inkscape:vp_x="0 : 300.5 : 1"
   inkscape:vp_y="0 : 1000 : 0"
   inkscape:vp_z="601 : 300.5 : 1"
   inkscape:persp3d-origin="300.5 : 200.33333 : 1"
   id="perspective2591" />
	
	
	
	

		
		
			
	</defs>
<path
   d="m 102.25171,15.244545 c 36.8976,10.565888 76.06521,16.249775 116.64811,16.249775 40.58239,0 79.74947,-5.683887 116.64708,-16.249288 36.89761,10.565401 76.0647,16.249288 116.64708,16.249288 40.58239,0 79.75051,-5.683887 116.64812,-16.249775 53.80538,63.801879 85.92713,144.437525 85.92713,232.113195 0,181.12199 -137.0848,332.20031 -319.22233,366.88762 C 153.40937,579.55805 16.32458,428.47973 16.32458,247.35774 c 0,-87.67567 32.122266,-168.311803 85.92713,-232.113195 z"
   style="fill:#ffffff;fill-opacity:1;stroke:#000000;stroke-width:1.03068042;stroke-miterlimit:4;stroke-opacity:1;stroke-dasharray:none"
   id="path1602"
   inkscape:export-filename="/home/lars/projects/mapnik-osm/topomap/custom-symbols/shield-interstate.png"
   inkscape:export-xdpi="2.95"
   inkscape:export-ydpi="2.95"
   inkscape:connector-curvature="0" /><path
   style="fill:#ffffff;fill-opacity:1;stroke:#000000;stroke-width:4.99168062;stroke-linecap:round;stroke-linejoin:round;stroke-miterlimit:4;stroke-opacity:1;stroke-dasharray:none"
   d="M 337.07082,2.6203403 C 262.05046,20.115523 182.05987,23.631116 107.19582,3.1515903 90.861349,2.9365493 80.565941,18.117824 72.602075,30.33909 -7.5687053,139.01191 -20.599871,293.79402 41.896489,413.83398 98.406012,524.81786 209.2417,606.67881 332.28877,626.66031 c 21.96676,0.0121 43.12767,-7.26999 63.8758,-13.72747 69.67218,-24.2564 133.75813,-66.02489 181.54453,-122.56038 50.91266,-59.21547 84.06112,-134.04721 89.72142,-212.27594 7.772,-96.8404 -22.32146,-197.443741 -87.70345,-269.9761797 -10.65523,-9.261338 -25.73308,-3.815596 -37.46875,-0.34375 -66.95843,14.8452917 -137.45143,11.8386757 -203.6875,-5.28125 l -1,0 -0.5,0.125 z"
   id="path1604"
   inkscape:export-filename="/home/lars/projects/mapnik-osm/topomap/custom-symbols/shield-interstate.png"
   inkscape:export-xdpi="2.95"
   inkscape:export-ydpi="2.95"
   inkscape:connector-curvature="0" /><g
   style="fill:#003f87;fill-opacity:1;stroke:none"
   transform="matrix(1.0734049,0,0,1.0102783,13.524386,11.077016)"
   id="g1606"
   inkscape:export-filename="/home/lars/projects/mapnik-osm/topomap/custom-symbols/shield-interstate.png"
   inkscape:export-xdpi="2.95"
   inkscape:export-ydpi="2.95">
		<path
   id="path1608"
   style="fill:#003f87;fill-opacity:1;stroke:none"
   d="m 15,232.5 c 0,-31.979 4.169434,-62.98389 11.994629,-92.50098 l 546.011231,0 C 580.83008,169.51611 585,200.521 585,232.5 585,405.60547 462.82617,550.17188 300,584.67676 137.17432,550.17188 15,405.60547 15,232.5 z"
   inkscape:connector-curvature="0" />
	</g><g
   style="fill:#af1e2d;fill-opacity:1;stroke:none"
   transform="matrix(1.0792244,0,0,1.0271482,11.780904,11.644115)"
   id="g1610"
   inkscape:export-filename="/home/lars/projects/mapnik-osm/topomap/custom-symbols/shield-interstate.png"
   inkscape:export-xdpi="2.95"
   inkscape:export-ydpi="2.95">
		<path
   id="path1612"
   style="fill:#af1e2d;fill-opacity:1;stroke:none"
   d="M 31.324219,124.99902 C 43.579102,85.77832 62.362793,49.44043 86.402832,17.259766 c 33.101558,9.132812 67.967778,14.012695 103.974118,14.012695 38.06055,0 74.84766,-5.45166 109.62305,-15.617676 34.77539,10.166016 71.5625,15.617676 109.62305,15.617676 36.00586,0 70.87304,-4.879883 103.97461,-14.012695 24.03906,32.180664 42.82324,68.518554 55.07812,107.739254 l -537.351561,0 0,0 z"
   inkscape:connector-curvature="0" />
	</g>





<path
   style="font-size:93.21589661px;font-style:normal;font-variant:normal;font-weight:normal;font-stretch:normal;text-align:center;line-height:125%;text-anchor:middle;fill:#ffffff;fill-opacity:1"
   d="m 111.14621,127.41527 0,-70.330507 10.40814,0 0,70.330507 -10.40814,0 z m 60.37046,0 -22.92151,-47.131531 0,47.131531 -10.63114,0 0,-70.330507 10.63114,0 20.37353,42.198303 0,-42.198303 10.63117,0 0,70.330507 -8.08319,0 z m 42.68341,-60.986206 0,60.986206 -10.73929,0 0,-60.986206 -13.51028,0 0,-9.344301 37.75982,0 0,9.344301 -13.51025,0 z m 23.68184,60.986206 0,-70.330507 34.88072,0 0,9.869655 -24.24958,0 0,17.73719 15.39254,0 0,9.658231 -15.39254,0 0,23.198981 27.1287,0 0,9.86645 -37.75984,0 z m 80.84877,0 -9.85731,-33.065431 -10.18509,0 0,33.065431 -10.63113,0 0,-70.330507 22.14765,0 c 2.87909,7.1e-5 5.51828,0.454953 7.91761,1.364645 2.39922,0.909833 4.4662,2.169833 6.20093,3.780007 1.73464,1.610303 3.06326,3.587327 3.98584,5.931081 0.92249,2.343874 1.38375,4.915662 1.38379,7.715374 -4e-5,4.19863 -0.88596,7.767739 -2.65777,10.707343 -1.77191,2.939685 -4.42969,5.038439 -7.97337,6.296267 l 10.63114,34.53579 -10.96229,0 z m 0.55417,-51.5394 c -3e-5,-2.729239 -0.88596,-4.898466 -2.65778,-6.507695 -1.77189,-1.60911 -4.09738,-2.413696 -6.97647,-2.413757 l -10.96232,0 0,17.73719 10.96232,0 c 3.09987,4.3e-5 5.48054,-0.752219 7.14206,-2.25679 1.66143,-1.504481 2.49216,-3.690793 2.49219,-6.558948 l 0,0 z m 60.60024,32.32865 c -3e-5,2.87025 -0.53507,5.54723 -1.60512,8.03089 -1.07017,2.48373 -2.54632,4.63533 -4.42852,6.45484 -1.88229,1.81954 -4.0602,3.27175 -6.5338,4.35663 -2.47365,1.08488 -5.15,1.62731 -8.02911,1.62731 -3.24862,0 -6.16435,-0.59475 -8.74722,-1.78428 -2.58289,-1.18953 -4.76026,-2.79868 -6.53211,-4.82753 -1.77185,-2.0288 -3.13764,-4.37314 -4.09735,-7.03303 -0.95973,-2.65987 -1.43956,-5.42387 -1.43955,-8.29199 l 10.40812,0 c -2e-5,1.46931 0.20275,2.92098 0.60825,4.35502 0.4055,1.43406 1.0329,2.72876 1.88226,3.88411 0.84931,1.15539 1.91995,2.08275 3.21198,2.78215 1.29198,0.69943 2.86052,1.04912 4.70562,1.0491 1.40348,2e-5 2.75125,-0.27975 4.04327,-0.83928 1.29199,-0.5595 2.39924,-1.32939 3.32182,-2.30964 0.92251,-0.98024 1.66028,-2.11743 2.21342,-3.41162 0.55304,-1.29415 0.82956,-2.64172 0.82961,-4.04268 -5e-5,-2.0288 -0.44274,-3.83017 -1.32806,-5.40413 -0.8854,-1.57391 -2.43535,-3.165991 -4.64985,-4.776259 -0.3695,-0.350207 -0.51708,-0.542944 -0.44268,-0.578211 0.0743,-0.03521 -0.14703,-0.227412 -0.66403,-0.576612 -0.51706,-0.349137 -1.60632,-1.031461 -3.26775,-2.046969 -1.66151,-1.015442 -4.37446,-2.746875 -8.13895,-5.194303 -3.02556,-1.960436 -5.2953,-4.252996 -6.80919,-6.877684 -1.51392,-2.624599 -2.27088,-5.510853 -2.27088,-8.658774 0,-2.519946 0.47986,-4.881911 1.43959,-7.085906 0.95968,-2.203872 2.30685,-4.145659 4.04156,-5.82537 1.73468,-1.679578 3.74647,-2.991899 6.03537,-3.936971 2.28886,-0.944928 4.76135,-1.417428 7.4175,-1.417499 2.65829,7.1e-5 5.11332,0.454952 7.36507,1.364643 2.25168,0.909833 4.20771,2.169832 5.86807,3.780007 1.66031,1.610303 2.98891,3.535005 3.98586,5.774115 0.99682,2.239229 1.53243,4.688221 1.6068,7.346981 l -10.18843,0 c -0.14648,-2.449472 -1.03186,-4.408878 -2.65611,-5.878227 -1.62434,-1.469227 -3.61809,-2.203872 -5.98126,-2.203933 -2.43535,6.1e-5 -4.50179,0.769942 -6.19928,2.309646 -1.69754,1.539823 -2.54628,3.463993 -2.54627,5.772514 -1e-5,1.749105 0.47984,3.218395 1.43957,4.407872 0.95968,1.189573 2.80476,2.518981 5.53523,3.988226 7.16173,3.918855 12.38493,7.90761 15.66961,11.966272 3.28461,4.058729 4.92691,8.642252 4.92694,13.750572 l 0,0 z m 30.90672,-41.775456 0,60.986206 -10.7393,0 0,-60.986206 -13.51026,0 0,-9.344301 37.75983,0 0,9.344301 -13.51027,0 z m 54.68654,60.986206 -5.20406,-19.21075 -15.94672,0 -4.86952,19.21075 -10.74267,0 18.49134,-70.330507 10.41146,0 18.49132,70.330507 -10.63115,0 z m -13.28726,-49.335466 -5.20406,20.258261 10.63115,0 -5.42709,-20.258261 z m 52.67927,-11.65074 0,60.986206 -10.73927,0 0,-60.986206 -13.51027,0 0,-9.344301 37.75982,0 0,9.344301 -13.51028,0 z m 23.68187,60.986206 0,-70.330507 34.8807,0 0,9.869655 -24.24955,0 0,17.73719 15.3925,0 0,9.658231 -15.3925,0 0,23.198981 27.12869,0 0,9.86645 -37.75984,0 z"
   id="text6060"
   inkscape:export-xdpi="2.95"
   inkscape:export-ydpi="2.95"
   inkscape:export-filename="/home/lars/projects/mapnik-osm/topomap/custom-symbols/shield-interstate.png"
   inkscape:connector-curvature="0" />
</svg>