<?xml version="1.0" encoding="UTF-8" standalone="no"?>
<!-- Created with Inkscape (http://www.inkscape.org/) -->
<svg
   xmlns:dc="http://purl.org/dc/elements/1.1/"
   xmlns:cc="http://creativecommons.org/ns#"
   xmlns:rdf="http://www.w3.org/1999/02/22-rdf-syntax-ns#"
   xmlns:svg="http://www.w3.org/2000/svg"
   xmlns="http://www.w3.org/2000/svg"
   xmlns:sodipodi="http://sodipodi.sourceforge.net/DTD/sodipodi-0.dtd"
   xmlns:inkscape="http://www.inkscape.org/namespaces/inkscape"
   version="1.0"
   width="601"
   height="601"
   viewBox="0 0 600 599.999"
   id="Layer_1"
   xml:space="preserve"
   sodipodi:version="0.32"
   inkscape:version="0.46"
   sodipodi:docname="interstate.svg"
   sodipodi:docbase="C:\Documents and Settings\ltljltlj\Desktop\Signs\Interstate Shields"
   inkscape:output_extension="org.inkscape.output.svg.inkscape"
   sodipodi:modified="true"><metadata
   id="metadata36"><rdf:RDF><cc:Work
       rdf:about=""><dc:format>image/svg+xml</dc:format><dc:type
         rdf:resource="http://purl.org/dc/dcmitype/StillImage" /></cc:Work></rdf:RDF></metadata><sodipodi:namedview
   inkscape:window-height="968"
   inkscape:window-width="1272"
   inkscape:pageshadow="2"
   inkscape:pageopacity="0.0"
   guidetolerance="10.0"
   gridtolerance="10.0"
   objecttolerance="10.0"
   borderopacity="1.0"
   bordercolor="#666666"
   pagecolor="#ffffff"
   id="base"
   width="601px"
   height="601px"
   inkscape:zoom="0.60736758"
   inkscape:cx="270.77875"
   inkscape:cy="235.57256"
   inkscape:window-x="0"
   inkscape:window-y="0"
   inkscape:current-layer="Layer_1"
   showgrid="false" /><defs
   id="defs1659"><inkscape:perspective
   sodipodi:type="inkscape:persp3d"
   inkscape:vp_x="0 : 300.5 : 1"
   inkscape:vp_y="0 : 1000 : 0"
   inkscape:vp_z="601 : 300.5 : 1"
   inkscape:persp3d-origin="300.5 : 200.33333 : 1"
   id="perspective2591" />
	
	
	
	

		
		
			
	</defs>
<path
   d="M 68.837133,0.49920438 C 105.73474,11.065093 144.90235,16.74898 185.48525,16.74898 C 226.06764,16.74898 265.23472,11.065093 302.13233,0.49969187 C 339.02994,11.065093 378.19703,16.74898 418.77941,16.74898 C 459.3618,16.74898 498.52992,11.065093 535.42753,0.49920438 C 589.23291,64.301084 621.35466,144.93673 621.35466,232.6124 C 621.35466,413.73439 484.26986,564.81271 302.13233,599.50002 C 119.9948,564.81271 -17.089995,413.73439 -17.089995,232.6124 C -17.089995,144.93673 15.032271,64.300597 68.837133,0.49920438 z"
   style="fill:#ffffff;fill-opacity:1;stroke:#000000;stroke-width:1.03068042;stroke-miterlimit:4;stroke-dasharray:none;stroke-opacity:1"
   id="path1602"
   inkscape:export-filename="/home/lars/projects/mapnik-osm/topomap/custom-symbols/shield-interstate.png"
   inkscape:export-xdpi="3.0397358"
   inkscape:export-ydpi="3.0397358" /><path
   style="fill:#ffffff;fill-opacity:1;stroke:#000000;stroke-width:4.99168053;stroke-linecap:round;stroke-linejoin:round;stroke-miterlimit:4;stroke-dasharray:none;stroke-opacity:1"
   d="M 301.46875,-3.59375 C 226.99145,13.465522 147.96435,16.859417 73.78125,-3.59375 C 60.271457,-3.8246155 53.305659,9.9531675 46.340471,19.380276 C -12.870726,99.806431 -35.798908,205.32632 -16.15625,303.28125 C -3.9608728,366.17242 25.904859,425.46809 68.4375,473.28125 C 127.8565,541.67232 211.4847,589.89883 301.25,604.40625 C 345.76558,599.86347 387.37072,581.29363 426.90625,561.125 C 514.55816,512.61367 584.65861,430.84664 612.96875,334.1875 C 646.1295,220.21305 620.80366,88.734126 541.21875,-0.46875 C 532.84407,-7.7975682 521.04802,-1.4116713 511.78125,0.53125 C 443.66587,15.821163 372.02737,13.358863 304.6875,-4.34375 C 303.61458,-4.09375 302.54167,-3.84375 301.46875,-3.59375 z"
   id="path1604"
   inkscape:export-filename="/home/lars/projects/mapnik-osm/topomap/custom-symbols/shield-interstate.png"
   inkscape:export-xdpi="3.0397358"
   inkscape:export-ydpi="3.0397358" /><g
   style="fill:#003f87;fill-opacity:1;stroke:none;stroke-opacity:1"
   transform="matrix(1.0734049,0,0,1.0102783,-19.890189,-3.6683244)"
   id="g1606"
   inkscape:export-filename="/home/lars/projects/mapnik-osm/topomap/custom-symbols/shield-interstate.png"
   inkscape:export-xdpi="3.0397358"
   inkscape:export-ydpi="3.0397358">
		<path
   id="path1608"
   style="fill:#003f87;fill-opacity:1;stroke:none;stroke-opacity:1"
   d="M 15,232.5 C 15,200.521 19.169434,169.51611 26.994629,139.99902 L 573.00586,139.99902 C 580.83008,169.51611 585,200.521 585,232.5 C 585,405.60547 462.82617,550.17188 300,584.67676 C 137.17432,550.17188 15,405.60547 15,232.5 z" />
	</g><g
   style="fill:#af1e2d;fill-opacity:1;stroke:none;stroke-opacity:1"
   transform="matrix(1.0792244,0,0,1.0271482,-21.633671,-3.1012254)"
   id="g1610"
   inkscape:export-filename="/home/lars/projects/mapnik-osm/topomap/custom-symbols/shield-interstate.png"
   inkscape:export-xdpi="3.0397358"
   inkscape:export-ydpi="3.0397358">
		<path
   id="path1612"
   style="fill:#af1e2d;fill-opacity:1;stroke:none;stroke-opacity:1"
   d="M 31.324219,124.99902 C 43.579102,85.77832 62.362793,49.44043 86.402832,17.259766 C 119.50439,26.392578 154.37061,31.272461 190.37695,31.272461 C 228.4375,31.272461 265.22461,25.820801 300,15.654785 C 334.77539,25.820801 371.5625,31.272461 409.62305,31.272461 C 445.62891,31.272461 480.49609,26.392578 513.59766,17.259766 C 537.63672,49.44043 556.4209,85.77832 568.67578,124.99902 L 31.324219,124.99902 L 31.324219,124.99902 z" />
	</g>





<path
   style="font-size:93.21589661px;font-style:normal;font-variant:normal;font-weight:normal;font-stretch:normal;text-align:center;line-height:125%;text-anchor:middle;fill:#ffffff;fill-opacity:1"
   d="M 77.73164,112.66993 L 77.73164,42.339423 L 88.139777,42.339423 L 88.139777,112.66993 L 77.73164,112.66993 z M 138.1021,112.66993 L 115.18059,65.538399 L 115.18059,112.66993 L 104.54945,112.66993 L 104.54945,42.339423 L 115.18059,42.339423 L 135.55412,84.537726 L 135.55412,42.339423 L 146.18529,42.339423 L 146.18529,112.66993 L 138.1021,112.66993 z M 180.78551,51.683724 L 180.78551,112.66993 L 170.04622,112.66993 L 170.04622,51.683724 L 156.53594,51.683724 L 156.53594,42.339423 L 194.29576,42.339423 L 194.29576,51.683724 L 180.78551,51.683724 z M 204.46735,112.66993 L 204.46735,42.339423 L 239.34807,42.339423 L 239.34807,52.209078 L 215.09849,52.209078 L 215.09849,69.946268 L 230.49103,69.946268 L 230.49103,79.604499 L 215.09849,79.604499 L 215.09849,102.80348 L 242.22719,102.80348 L 242.22719,112.66993 L 204.46735,112.66993 z M 285.31612,112.66993 L 275.45881,79.604499 L 265.27372,79.604499 L 265.27372,112.66993 L 254.64259,112.66993 L 254.64259,42.339423 L 276.79024,42.339423 C 279.66933,42.339494 282.30852,42.794376 284.70785,43.704068 C 287.10707,44.613901 289.17405,45.873901 290.90878,47.484075 C 292.64342,49.094378 293.97204,51.071402 294.89462,53.415156 C 295.81711,55.75903 296.27837,58.330818 296.27841,61.13053 C 296.27837,65.32916 295.39245,68.898269 293.62064,71.837873 C 291.84873,74.777558 289.19095,76.876312 285.64727,78.13414 L 296.27841,112.66993 L 285.31612,112.66993 z M 285.87029,61.13053 C 285.87026,58.401291 284.98433,56.232064 283.21251,54.622835 C 281.44062,53.013725 279.11513,52.209139 276.23604,52.209078 L 265.27372,52.209078 L 265.27372,69.946268 L 276.23604,69.946268 C 279.33591,69.946311 281.71658,69.194049 283.3781,67.689478 C 285.03953,66.184997 285.87026,63.998685 285.87029,61.13053 L 285.87029,61.13053 z M 346.47053,93.459177 C 346.4705,96.329433 345.93546,99.006405 344.86541,101.49007 C 343.79524,103.9738 342.31909,106.1254 340.43689,107.94491 C 338.5546,109.76445 336.37669,111.21666 333.90309,112.30154 C 331.42944,113.38642 328.75309,113.92885 325.87398,113.92885 C 322.62536,113.92885 319.70963,113.3341 317.12676,112.14457 C 314.54387,110.95504 312.3665,109.34589 310.59465,107.31704 C 308.8228,105.28824 307.45701,102.9439 306.4973,100.28401 C 305.53757,97.624136 305.05774,94.860144 305.05775,91.992022 L 315.46587,91.992022 C 315.46585,93.461331 315.66862,94.913 316.07412,96.347035 C 316.47962,97.781103 317.10702,99.0758 317.95638,100.23115 C 318.80569,101.38654 319.87633,102.3139 321.16836,103.0133 C 322.46034,103.71273 324.02888,104.06242 325.87398,104.0624 C 327.27746,104.06242 328.62523,103.78265 329.91725,103.22312 C 331.20924,102.66362 332.31649,101.89373 333.23907,100.91348 C 334.16158,99.933242 334.89935,98.796046 335.45249,97.501858 C 336.00553,96.207705 336.28205,94.860144 336.2821,93.459177 C 336.28205,91.430382 335.83936,89.62901 334.95404,88.055052 C 334.06864,86.481144 332.51869,84.889059 330.30419,83.278791 C 329.93469,82.928584 329.78711,82.735847 329.86151,82.70058 C 329.93583,82.665372 329.71448,82.473168 329.19748,82.123968 C 328.68042,81.774831 327.59116,81.092507 325.92973,80.076999 C 324.26822,79.061557 321.55527,77.330124 317.79078,74.882696 C 314.76522,72.92226 312.49548,70.6297 310.98159,68.005012 C 309.46767,65.380413 308.71071,62.494159 308.71071,59.346238 C 308.71071,56.826292 309.19057,54.464327 310.1503,52.260332 C 311.10998,50.05646 312.45715,48.114673 314.19186,46.434962 C 315.92654,44.755384 317.93833,43.443063 320.22723,42.497991 C 322.51609,41.553063 324.98858,41.080563 327.64473,41.080492 C 330.30302,41.080563 332.75805,41.535444 335.0098,42.445135 C 337.26148,43.354968 339.21751,44.614967 340.87787,46.225142 C 342.53818,47.835445 343.86678,49.760147 344.86373,51.999257 C 345.86055,54.238486 346.39616,56.687478 346.47053,59.346238 L 336.2821,59.346238 C 336.13562,56.896766 335.25024,54.93736 333.62599,53.468011 C 332.00165,51.998784 330.0079,51.264139 327.64473,51.264078 C 325.20938,51.264139 323.14294,52.03402 321.44545,53.573724 C 319.74791,55.113547 318.89917,57.037717 318.89918,59.346238 C 318.89917,61.095343 319.37902,62.564633 320.33875,63.75411 C 321.29843,64.943683 323.14351,66.273091 325.87398,67.742336 C 333.03571,71.661191 338.25891,75.649946 341.54359,79.708608 C 344.8282,83.767337 346.4705,88.350855 346.47053,93.459177 L 346.47053,93.459177 z M 377.37725,51.683724 L 377.37725,112.66993 L 366.63795,112.66993 L 366.63795,51.683724 L 353.12769,51.683724 L 353.12769,42.339423 L 390.88752,42.339423 L 390.88752,51.683724 L 377.37725,51.683724 z M 432.06379,112.66993 L 426.85973,93.459177 L 410.91301,93.459177 L 406.04349,112.66993 L 395.30082,112.66993 L 413.79216,42.339423 L 424.20362,42.339423 L 442.69494,112.66993 L 432.06379,112.66993 z M 418.77653,63.334464 L 413.57247,83.592725 L 424.20362,83.592725 L 418.77653,63.334464 z M 471.4558,51.683724 L 471.4558,112.66993 L 460.71653,112.66993 L 460.71653,51.683724 L 447.20626,51.683724 L 447.20626,42.339423 L 484.96608,42.339423 L 484.96608,51.683724 L 471.4558,51.683724 z M 495.13767,112.66993 L 495.13767,42.339423 L 530.01837,42.339423 L 530.01837,52.209078 L 505.76882,52.209078 L 505.76882,69.946268 L 521.16132,69.946268 L 521.16132,79.604499 L 505.76882,79.604499 L 505.76882,102.80348 L 532.89751,102.80348 L 532.89751,112.66993 L 495.13767,112.66993 z"
   id="text6060"
   inkscape:export-xdpi="3.0397358"
   inkscape:export-ydpi="3.0397358"
   inkscape:export-filename="/home/lars/projects/mapnik-osm/topomap/custom-symbols/shield-interstate.png" />
</svg>