<?xml version="1.0" encoding="UTF-8" standalone="no"?>
<!-- Created with Inkscape (http://www.inkscape.org/) -->

<svg
   xmlns:dc="http://purl.org/dc/elements/1.1/"
   xmlns:cc="http://creativecommons.org/ns#"
   xmlns:rdf="http://www.w3.org/1999/02/22-rdf-syntax-ns#"
   xmlns:svg="http://www.w3.org/2000/svg"
   xmlns="http://www.w3.org/2000/svg"
   xmlns:sodipodi="http://sodipodi.sourceforge.net/DTD/sodipodi-0.dtd"
   xmlns:inkscape="http://www.inkscape.org/namespaces/inkscape"
   version="1.0"
   width="672.24414"
   height="630.20526"
   viewBox="0 0 671.1256 629.15562"
   id="Layer_1"
   xml:space="preserve"
   sodipodi:version="0.32"
   inkscape:version="0.48.0 r9654"
   sodipodi:docname="interstate-3.svg"
   inkscape:output_extension="org.inkscape.output.svg.inkscape"
   sodipodi:modified="true"><metadata
   id="metadata36"><rdf:RDF><cc:Work
       rdf:about=""><dc:format>image/svg+xml</dc:format><dc:type
         rdf:resource="http://purl.org/dc/dcmitype/StillImage" /><dc:title></dc:title></cc:Work></rdf:RDF></metadata><sodipodi:namedview
   inkscape:window-height="949"
   inkscape:window-width="1272"
   inkscape:pageshadow="2"
   inkscape:pageopacity="1"
   guidetolerance="10.0"
   gridtolerance="10.0"
   objecttolerance="10.0"
   borderopacity="1.0"
   bordercolor="#666666"
   pagecolor="#d7d9d9"
   id="base"
   width="601px"
   height="601px"
   inkscape:zoom="0.60736758"
   inkscape:cx="307.56063"
   inkscape:cy="282.85497"
   inkscape:window-x="0"
   inkscape:window-y="25"
   inkscape:current-layer="Layer_1"
   showgrid="false"
   fit-margin-top="0"
   fit-margin-left="0"
   fit-margin-right="0"
   fit-margin-bottom="0"
   inkscape:window-maximized="0"
   showborder="true"
   inkscape:showpageshadow="true"
   borderlayer="false" /><defs
   id="defs1659"><inkscape:perspective
   sodipodi:type="inkscape:persp3d"
   inkscape:vp_x="0 : 300.5 : 1"
   inkscape:vp_y="0 : 1000 : 0"
   inkscape:vp_z="601 : 300.5 : 1"
   inkscape:persp3d-origin="300.5 : 200.33333 : 1"
   id="perspective2591" />
	
	
	
	

		
		
			
	</defs>
<path
   d="m 102.25171,15.244545 c 36.8976,10.565888 76.06521,16.249775 116.64811,16.249775 40.58239,0 79.74947,-5.683887 116.64708,-16.249288 36.89761,10.565401 76.0647,16.249288 116.64708,16.249288 40.58239,0 79.75051,-5.683887 116.64812,-16.249775 53.80538,63.801879 85.92713,144.437525 85.92713,232.113195 0,181.12199 -137.0848,332.20031 -319.22233,366.88762 C 153.40937,579.55805 16.32458,428.47973 16.32458,247.35774 c 0,-87.67567 32.122266,-168.311803 85.92713,-232.113195 z"
   style="fill:#ffffff;fill-opacity:1;stroke:#000000;stroke-width:1.03068042;stroke-miterlimit:4;stroke-opacity:1;stroke-dasharray:none"
   id="path1602"
   inkscape:export-filename="/home/lars/projects/mapnik-osm/topomap/custom-symbols/shield-interstate.png"
   inkscape:export-xdpi="2.95"
   inkscape:export-ydpi="2.95"
   inkscape:connector-curvature="0" /><path
   style="fill:#ffffff;fill-opacity:1;stroke:none;stroke-width:4.99168062000000035;stroke-linecap:round;stroke-linejoin:round;stroke-miterlimit:4;stroke-opacity:1;stroke-dasharray:none"
   d="M 337.07082,2.6203403 C 262.05046,20.115523 182.05987,23.631116 107.19582,3.1515903 90.861349,2.9365493 80.565941,18.117824 72.602075,30.33909 -7.5687053,139.01191 -20.599871,293.79402 41.896489,413.83398 98.406012,524.81786 209.2417,606.67881 332.28877,626.66031 c 21.96676,0.0121 43.12767,-7.26999 63.8758,-13.72747 69.67218,-24.2564 133.75813,-66.02489 181.54453,-122.56038 50.91266,-59.21547 84.06112,-134.04721 89.72142,-212.27594 7.772,-96.8404 -22.32146,-197.443741 -87.70345,-269.9761797 -10.65523,-9.261338 -25.73308,-3.815596 -37.46875,-0.34375 -66.95843,14.8452917 -137.45143,11.8386757 -203.6875,-5.28125 l -1,0 -0.5,0.125 z"
   id="path1604"
   inkscape:export-filename="/home/lars/projects/mapnik-osm/topomap/custom-symbols/shield-interstate.png"
   inkscape:export-xdpi="2.95"
   inkscape:export-ydpi="2.95"
   inkscape:connector-curvature="0" /><g
   style="fill:#003f87;fill-opacity:1;stroke:none"
   transform="matrix(1.0734049,0,0,1.0102783,13.524386,11.077016)"
   id="g1606"
   inkscape:export-filename="/home/lars/projects/mapnik-osm/topomap/custom-symbols/shield-interstate.png"
   inkscape:export-xdpi="2.95"
   inkscape:export-ydpi="2.95">
		<path
   id="path1608"
   style="fill:#003f87;fill-opacity:1;stroke:none"
   d="m 15,232.5 c 0,-31.979 4.169434,-62.98389 11.994629,-92.50098 l 546.011231,0 C 580.83008,169.51611 585,200.521 585,232.5 585,405.60547 462.82617,550.17188 300,584.67676 137.17432,550.17188 15,405.60547 15,232.5 z"
   inkscape:connector-curvature="0" />
	</g><g
   style="fill:#af1e2d;fill-opacity:1;stroke:none"
   transform="matrix(1.0792244,0,0,1.0271482,11.780904,11.644115)"
   id="g1610"
   inkscape:export-filename="/home/lars/projects/mapnik-osm/topomap/custom-symbols/shield-interstate.png"
   inkscape:export-xdpi="2.95"
   inkscape:export-ydpi="2.95">
		<path
   id="path1612"
   style="fill:#af1e2d;fill-opacity:1;stroke:none"
   d="M 31.324219,124.99902 C 43.579102,85.77832 62.362793,49.44043 86.402832,17.259766 c 33.101558,9.132812 67.967778,14.012695 103.974118,14.012695 38.06055,0 74.84766,-5.45166 109.62305,-15.617676 34.77539,10.166016 71.5625,15.617676 109.62305,15.617676 36.00586,0 70.87304,-4.879883 103.97461,-14.012695 24.03906,32.180664 42.82324,68.518554 55.07812,107.739254 l -537.351561,0 0,0 z"
   inkscape:connector-curvature="0" />
	</g>






</svg>