<?xml version="1.0" encoding="UTF-8" standalone="no"?>
<!-- Created with Inkscape (http://www.inkscape.org/) -->

<svg
   xmlns:dc="http://purl.org/dc/elements/1.1/"
   xmlns:cc="http://creativecommons.org/ns#"
   xmlns:rdf="http://www.w3.org/1999/02/22-rdf-syntax-ns#"
   xmlns:svg="http://www.w3.org/2000/svg"
   xmlns="http://www.w3.org/2000/svg"
   xmlns:sodipodi="http://sodipodi.sourceforge.net/DTD/sodipodi-0.dtd"
   xmlns:inkscape="http://www.inkscape.org/namespaces/inkscape"
   version="1.0"
   width="22"
   height="20.61388"
   viewBox="0 0 21.963394 20.579547"
   id="Layer_1"
   xml:space="preserve"
   sodipodi:version="0.32"
   inkscape:version="0.48.0 r9654"
   sodipodi:docname="interstate-3.svg"
   inkscape:output_extension="org.inkscape.output.svg.inkscape"
   sodipodi:modified="true"><metadata
   id="metadata36"><rdf:RDF><cc:Work
       rdf:about=""><dc:format>image/svg+xml</dc:format><dc:type
         rdf:resource="http://purl.org/dc/dcmitype/StillImage" /><dc:title></dc:title></cc:Work></rdf:RDF></metadata><sodipodi:namedview
   inkscape:window-height="954"
   inkscape:window-width="1280"
   inkscape:pageshadow="2"
   inkscape:pageopacity="1"
   guidetolerance="10.0"
   gridtolerance="10.0"
   objecttolerance="10.0"
   borderopacity="1.0"
   bordercolor="#666666"
   pagecolor="#d7d9d9"
   id="base"
   width="601px"
   height="601px"
   inkscape:zoom="19.435763"
   inkscape:cx="14.927698"
   inkscape:cy="11.388138"
   inkscape:window-x="0"
   inkscape:window-y="25"
   inkscape:current-layer="Layer_1"
   showgrid="false"
   fit-margin-top="0"
   fit-margin-left="0"
   fit-margin-right="0"
   fit-margin-bottom="0"
   inkscape:window-maximized="1"
   showborder="true"
   inkscape:showpageshadow="true"
   borderlayer="false" /><defs
   id="defs1659"><inkscape:perspective
   sodipodi:type="inkscape:persp3d"
   inkscape:vp_x="0 : 300.5 : 1"
   inkscape:vp_y="0 : 1000 : 0"
   inkscape:vp_z="601 : 300.5 : 1"
   inkscape:persp3d-origin="300.5 : 200.33333 : 1"
   id="perspective2591" />
	
	
	
	

		
		
			
	</defs>
<path
   d="m 3.2890947,0.41981565 c 1.216567,0.34837 2.5079795,0.53577 3.8460562,0.53577 1.3380596,0 2.6294546,-0.1874 3.8460231,-0.53576 1.216567,0.34836 2.507962,0.53576 3.846022,0.53576 1.33806,0 2.629489,-0.1874 3.846057,-0.53577 1.77404,2.10364005 2.833141,4.76231005 2.833141,7.65310005 0,5.9718603 -4.519884,10.9531303 -10.52522,12.0968203 C 4.9758364,19.026046 0.45595343,14.044776 0.45595343,8.0729157 c 0,-2.89079 1.05911737,-5.54948 2.83314127,-7.65310005 z"
   style="fill:#ffffff;fill-opacity:1;stroke:#000000;stroke-width:0.03398302;stroke-miterlimit:4;stroke-opacity:1;stroke-dasharray:none"
   id="path1602"
   inkscape:export-filename="/home/lars/projects/mapnik-osm/topomap/custom-symbols/shield-interstate.png"
   inkscape:export-xdpi="2.95"
   inkscape:export-ydpi="2.95"
   inkscape:connector-curvature="0" /><path
   style="fill:#ffffff;fill-opacity:1;stroke:none"
   d="m 11.03142,0.00357565 c -2.4735305,0.57684 -5.1109353,0.69275 -7.5793109,0.0175 -0.538571,-0.007 -0.8780255,0.49346 -1.1406056,0.89641 C -0.33184257,4.5005857 -0.76149887,9.6039757 1.2990961,13.561866 c 1.8632004,3.6593 5.5176127,6.35838 9.5746519,7.01719 0.724276,4e-4 1.421982,-0.2397 2.106078,-0.45261 2.297192,-0.79977 4.410198,-2.17694 5.985784,-4.04099 1.678664,-1.95242 2.771617,-4.41973 2.958245,-6.9990503 0.256254,-3.19296 -0.735971,-6.51 -2.891709,-8.90150005 -0.351319,-0.30536 -0.848457,-0.12581 -1.235399,-0.0113 -2.207716,0.48947 -4.531972,0.39033 -6.71587,-0.17412999832 l -0.03297,0 -0.01648,0.003999998 z"
   id="path1604"
   inkscape:export-filename="/home/lars/projects/mapnik-osm/topomap/custom-symbols/shield-interstate.png"
   inkscape:export-xdpi="2.95"
   inkscape:export-ydpi="2.95"
   inkscape:connector-curvature="0" /><g
   style="fill:#003f87;fill-opacity:1;stroke:none"
   transform="matrix(0.03539171,0,0,0.03331033,0.36362703,0.28240565)"
   id="g1606"
   inkscape:export-filename="/home/lars/projects/mapnik-osm/topomap/custom-symbols/shield-interstate.png"
   inkscape:export-xdpi="2.95"
   inkscape:export-ydpi="2.95">
		<path
   id="path1608"
   style="fill:#003f87;fill-opacity:1;stroke:none"
   d="m 15,232.5 c 0,-31.979 4.169434,-62.98389 11.994629,-92.50098 l 546.011231,0 C 580.83008,169.51611 585,200.521 585,232.5 585,405.60547 462.82617,550.17188 300,584.67676 137.17432,550.17188 15,405.60547 15,232.5 z"
   inkscape:connector-curvature="0" />
	</g><g
   style="fill:#af1e2d;fill-opacity:1;stroke:none"
   transform="matrix(0.03558358,0,0,0.03386656,0.30614193,0.30109565)"
   id="g1610"
   inkscape:export-filename="/home/lars/projects/mapnik-osm/topomap/custom-symbols/shield-interstate.png"
   inkscape:export-xdpi="2.95"
   inkscape:export-ydpi="2.95">
		<path
   id="path1612"
   style="fill:#af1e2d;fill-opacity:1;stroke:none"
   d="M 31.324219,124.99902 C 43.579102,85.77832 62.362793,49.44043 86.402832,17.259766 c 33.101558,9.132812 67.967778,14.012695 103.974118,14.012695 38.06055,0 74.84766,-5.45166 109.62305,-15.617676 34.77539,10.166016 71.5625,15.617676 109.62305,15.617676 36.00586,0 70.87304,-4.879883 103.97461,-14.012695 24.03906,32.180664 42.82324,68.518554 55.07812,107.739254 l -537.351561,0 0,0 z"
   inkscape:connector-curvature="0" />
	</g>






</svg>