<?xml version="1.0" encoding="UTF-8" standalone="no"?>
<!-- Generator: Adobe Illustrator 12.0.0, SVG Export Plug-In . SVG Version: 6.00 Build 51448)  -->

<svg
   xmlns:dc="http://purl.org/dc/elements/1.1/"
   xmlns:cc="http://creativecommons.org/ns#"
   xmlns:rdf="http://www.w3.org/1999/02/22-rdf-syntax-ns#"
   xmlns:svg="http://www.w3.org/2000/svg"
   xmlns="http://www.w3.org/2000/svg"
   xmlns:sodipodi="http://sodipodi.sourceforge.net/DTD/sodipodi-0.dtd"
   xmlns:inkscape="http://www.inkscape.org/namespaces/inkscape"
   version="1.1"
   id="Layer_1"
   width="22"
   height="18"
   viewBox="0 0 22 18"
   overflow="visible"
   enable-background="new 0 0 750 600"
   xml:space="preserve"
   sodipodi:version="0.32"
   inkscape:version="0.48.1 r9760"
   sodipodi:docname="shield-us-3.svg"
   inkscape:output_extension="org.inkscape.output.svg.inkscape"
   inkscape:export-filename="/home/lars/projects/mapnik-osm/topomap/custom-symbols/shield-us-3.png"
   inkscape:export-xdpi="12.13"
   inkscape:export-ydpi="12.13"
   style="overflow:visible"><metadata
   id="metadata3511"><rdf:RDF><cc:Work
       rdf:about=""><dc:format>image/svg+xml</dc:format><dc:type
         rdf:resource="http://purl.org/dc/dcmitype/StillImage" /></cc:Work></rdf:RDF></metadata><defs
   id="defs3509"><inkscape:perspective
   sodipodi:type="inkscape:persp3d"
   inkscape:vp_x="0 : 300 : 1"
   inkscape:vp_y="0 : 1000 : 0"
   inkscape:vp_z="750 : 300 : 1"
   inkscape:persp3d-origin="375 : 200 : 1"
   id="perspective3513" />
	
	

		
		
	</defs><sodipodi:namedview
   inkscape:window-height="710"
   inkscape:window-width="1024"
   inkscape:pageshadow="2"
   inkscape:pageopacity="0.0"
   guidetolerance="10.0"
   gridtolerance="10.0"
   objecttolerance="10.0"
   borderopacity="1.0"
   bordercolor="#666666"
   pagecolor="#ffffff"
   id="base"
   showgrid="false"
   inkscape:zoom="27.333333"
   inkscape:cx="11"
   inkscape:cy="9"
   inkscape:window-x="0"
   inkscape:window-y="21"
   inkscape:current-layer="Layer_1"
   fit-margin-top="0"
   fit-margin-left="0"
   fit-margin-right="0"
   fit-margin-bottom="0"
   inkscape:window-maximized="1" />
<path
   d=""
   id="path3496"
   inkscape:connector-curvature="0" />

<path
   style="fill:#ffffff;fill-opacity:1;fill-rule:evenodd;stroke:#000000;stroke-width:1.1819663;stroke-miterlimit:4;stroke-opacity:1;stroke-dasharray:none"
   id="path3498"
   d="M 11.032669,0.81337705 C 10.011471,1.4456236 8.8077186,1.8105197 7.5188227,1.8105197 6.229927,1.8105197 5.0261602,1.4455685 4.0049759,0.81332197 L 0.77223625,4.0500036 C 1.3671472,4.8966364 1.7164181,5.9287545 1.7164181,7.0425868 c 0,0.8038384 -0.181924,1.5651154 -0.5067901,2.2448157 -0.28039414,0.5873915 -0.43739175,1.2451485 -0.43739175,1.9395955 0,2.487099 2.01365425,4.503208 4.49772455,4.503208 l 2.8143168,0 c 1.1903025,0 2.2526084,0.548664 2.9483914,1.407198 0.695768,-0.858534 1.758076,-1.407198 2.948391,-1.407198 l 2.814318,0 c 2.484071,0 4.497725,-2.016109 4.497725,-4.503208 0,-0.694447 -0.156997,-1.352204 -0.437419,-1.9395955 C 20.530818,8.6077022 20.34892,7.8464252 20.34892,7.0425868 c 0,-1.1138323 0.349271,-2.1459504 0.944183,-2.9925832 L 18.060363,0.81332197 C 17.039179,1.4455685 15.835385,1.8105197 14.546516,1.8105197 c -1.288896,0 -2.492663,-0.3648961 -3.513847,-0.99714265 z"
   clip-rule="evenodd"
   inkscape:export-filename="/home/lars/projects/mapnik-osm/topomap/custom-symbols/shield-us.png"
   inkscape:export-xdpi="2.6400001"
   inkscape:export-ydpi="2.6400001"
   inkscape:connector-curvature="0" /></svg>