<?xml version="1.0" encoding="UTF-8" standalone="no"?>
<!-- Generator: Adobe Illustrator 12.0.0, SVG Export Plug-In . SVG Version: 6.00 Build 51448)  -->
<svg
   xmlns:dc="http://purl.org/dc/elements/1.1/"
   xmlns:cc="http://creativecommons.org/ns#"
   xmlns:rdf="http://www.w3.org/1999/02/22-rdf-syntax-ns#"
   xmlns:svg="http://www.w3.org/2000/svg"
   xmlns="http://www.w3.org/2000/svg"
   xmlns:sodipodi="http://sodipodi.sourceforge.net/DTD/sodipodi-0.dtd"
   xmlns:inkscape="http://www.inkscape.org/namespaces/inkscape"
   version="1.1"
   id="Layer_1"
   width="750"
   height="600"
   viewBox="0 0 750 600"
   overflow="visible"
   enable-background="new 0 0 750 600"
   xml:space="preserve"
   sodipodi:version="0.32"
   inkscape:version="0.46"
   sodipodi:docname="shield-us-3.svg"
   inkscape:output_extension="org.inkscape.output.svg.inkscape"
   inkscape:export-filename="/home/lars/projects/mapnik-osm/topomap/custom-symbols/shield-us-3.png"
   inkscape:export-xdpi="12.13"
   inkscape:export-ydpi="12.13"><metadata
   id="metadata3511"><rdf:RDF><cc:Work
       rdf:about=""><dc:format>image/svg+xml</dc:format><dc:type
         rdf:resource="http://purl.org/dc/dcmitype/StillImage" /></cc:Work></rdf:RDF></metadata><defs
   id="defs3509"><inkscape:perspective
   sodipodi:type="inkscape:persp3d"
   inkscape:vp_x="0 : 300 : 1"
   inkscape:vp_y="0 : 1000 : 0"
   inkscape:vp_z="750 : 300 : 1"
   inkscape:persp3d-origin="375 : 200 : 1"
   id="perspective3513" />
	
	

		
		
	</defs><sodipodi:namedview
   inkscape:window-height="849"
   inkscape:window-width="966"
   inkscape:pageshadow="2"
   inkscape:pageopacity="0.0"
   guidetolerance="10.0"
   gridtolerance="10.0"
   objecttolerance="10.0"
   borderopacity="1.0"
   bordercolor="#666666"
   pagecolor="#ffffff"
   id="base"
   showgrid="false"
   inkscape:zoom="0.36"
   inkscape:cx="535.56301"
   inkscape:cy="344.51729"
   inkscape:window-x="274"
   inkscape:window-y="142"
   inkscape:current-layer="Layer_1" />
<path
   d=""
   id="path3496" />

<path
   style="fill:#ffffff;fill-opacity:1;fill-rule:evenodd;stroke:#000000;stroke-width:39.0617218;stroke-miterlimit:4;stroke-dasharray:none;stroke-opacity:1"
   id="path3498"
   d="M 377.13038,27.477509 C 343.36117,48.359327 303.55518,60.411105 260.93368,60.411105 C 218.31218,60.411105 178.50574,48.357512 144.73699,27.475693 L 37.836017,134.37667 C 57.508665,162.33922 69.058435,196.42797 69.058435,233.21557 C 69.058435,259.76471 63.042531,284.90813 52.299783,307.35724 C 43.02765,326.75755 37.836017,348.48179 37.836017,371.41794 C 37.836017,453.56174 104.42399,520.14971 186.5678,520.14971 L 279.63227,520.14971 C 318.99346,520.14971 354.12208,538.27095 377.13038,566.62658 C 400.13824,538.27095 435.26687,520.14971 474.6285,520.14971 L 567.69298,520.14971 C 649.83679,520.14971 716.42476,453.56174 716.42476,371.41794 C 716.42476,348.48179 711.23313,326.75755 701.96008,307.35724 C 691.21734,284.90813 685.20234,259.76471 685.20234,233.21557 C 685.20234,196.42797 696.7521,162.33922 716.42476,134.37667 L 609.52379,27.475693 C 575.75504,48.357512 535.94769,60.411105 493.32709,60.411105 C 450.7056,60.411105 410.89914,48.359327 377.13038,27.477509 z"
   clip-rule="evenodd"
   inkscape:export-filename="/home/lars/projects/mapnik-osm/topomap/custom-symbols/shield-us.png"
   inkscape:export-xdpi="2.6400001"
   inkscape:export-ydpi="2.6400001" /></svg>