<?xml version="1.0" encoding="UTF-8" standalone="no"?>
<!-- Generator: Adobe Illustrator 12.0.0, SVG Export Plug-In . SVG Version: 6.00 Build 51448)  -->
<svg
   xmlns:dc="http://purl.org/dc/elements/1.1/"
   xmlns:cc="http://creativecommons.org/ns#"
   xmlns:rdf="http://www.w3.org/1999/02/22-rdf-syntax-ns#"
   xmlns:svg="http://www.w3.org/2000/svg"
   xmlns="http://www.w3.org/2000/svg"
   xmlns:sodipodi="http://sodipodi.sourceforge.net/DTD/sodipodi-0.dtd"
   xmlns:inkscape="http://www.inkscape.org/namespaces/inkscape"
   version="1.1"
   id="Layer_1"
   width="750"
   height="600"
   viewBox="0 0 750 600"
   overflow="visible"
   enable-background="new 0 0 750 600"
   xml:space="preserve"
   sodipodi:version="0.32"
   inkscape:version="0.46"
   sodipodi:docname="shield-us-2.svg"
   inkscape:output_extension="org.inkscape.output.svg.inkscape"><metadata
   id="metadata3511"><rdf:RDF><cc:Work
       rdf:about=""><dc:format>image/svg+xml</dc:format><dc:type
         rdf:resource="http://purl.org/dc/dcmitype/StillImage" /></cc:Work></rdf:RDF></metadata><defs
   id="defs3509"><inkscape:perspective
   sodipodi:type="inkscape:persp3d"
   inkscape:vp_x="0 : 300 : 1"
   inkscape:vp_y="0 : 1000 : 0"
   inkscape:vp_z="750 : 300 : 1"
   inkscape:persp3d-origin="375 : 200 : 1"
   id="perspective3513" />
	
	

		
		
	</defs><sodipodi:namedview
   inkscape:window-height="849"
   inkscape:window-width="759"
   inkscape:pageshadow="2"
   inkscape:pageopacity="0.0"
   guidetolerance="10.0"
   gridtolerance="10.0"
   objecttolerance="10.0"
   borderopacity="1.0"
   bordercolor="#666666"
   pagecolor="#ffffff"
   id="base"
   showgrid="false"
   inkscape:zoom="0.72"
   inkscape:cx="393.51704"
   inkscape:cy="300"
   inkscape:window-x="481"
   inkscape:window-y="142"
   inkscape:current-layer="Layer_1" />
<path
   d=""
   id="path3496" />

<path
   style="fill:#000000;fill-rule:evenodd"
   id="path3498"
   d="M 375,5.1694942 C 338.067,28.007695 294.53166,41.188583 247.91702,41.188583 C 201.30239,41.188583 157.76654,28.005709 120.83405,5.1675088 L 3.9177064,122.08385 C 25.433451,152.66617 38.0653,189.94864 38.0653,230.18281 C 38.0653,259.2193 31.485777,286.71836 19.736559,311.27069 C 9.5957351,332.48858 3.9177064,356.24813 3.9177064,381.33312 C 3.9177064,471.17285 76.744193,543.99934 166.58392,543.99934 L 268.36745,543.99934 C 311.41632,543.99934 349.83609,563.81832 375,594.83055 C 400.16343,563.81832 438.58319,543.99934 481.63255,543.99934 L 583.41608,543.99934 C 673.25581,543.99934 746.0823,471.17285 746.0823,381.33312 C 746.0823,356.24813 740.40427,332.48858 730.26244,311.27069 C 718.51323,286.71836 711.9347,259.2193 711.9347,230.18281 C 711.9347,189.94864 724.56654,152.66617 746.0823,122.08385 L 629.16595,5.1675088 C 592.23346,28.005709 548.69662,41.188583 502.08298,41.188583 C 455.46834,41.188583 411.93249,28.007695 375,5.1694942 z"
   clip-rule="evenodd"
   inkscape:export-filename="/home/lars/projects/mapnik-osm/topomap/custom-symbols/shield-us.png"
   inkscape:export-xdpi="2.6400001"
   inkscape:export-ydpi="2.6400001" /></svg>