<?xml version="1.0" encoding="UTF-8" standalone="no"?>
<!-- Created with Inkscape (http://www.inkscape.org/) -->

<svg
   xmlns:dc="http://purl.org/dc/elements/1.1/"
   xmlns:cc="http://creativecommons.org/ns#"
   xmlns:rdf="http://www.w3.org/1999/02/22-rdf-syntax-ns#"
   xmlns:svg="http://www.w3.org/2000/svg"
   xmlns="http://www.w3.org/2000/svg"
   xmlns:sodipodi="http://sodipodi.sourceforge.net/DTD/sodipodi-0.dtd"
   xmlns:inkscape="http://www.inkscape.org/namespaces/inkscape"
   width="22.937246"
   height="22.986004"
   id="svg3647"
   version="1.1"
   inkscape:version="0.48.0 r9654"
   sodipodi:docname="New document 16">
  <defs
     id="defs3649" />
  <sodipodi:namedview
     id="base"
     pagecolor="#ffffff"
     bordercolor="#666666"
     borderopacity="1.0"
     inkscape:pageopacity="0.0"
     inkscape:pageshadow="2"
     inkscape:zoom="0.35"
     inkscape:cx="11.468627"
     inkscape:cy="11.493001"
     inkscape:document-units="px"
     inkscape:current-layer="layer1"
     showgrid="false"
     fit-margin-top="0"
     fit-margin-left="0"
     fit-margin-right="0"
     fit-margin-bottom="0"
     inkscape:window-width="452"
     inkscape:window-height="413"
     inkscape:window-x="0"
     inkscape:window-y="561"
     inkscape:window-maximized="0" />
  <metadata
     id="metadata3652">
    <rdf:RDF>
      <cc:Work
         rdf:about="">
        <dc:format>image/svg+xml</dc:format>
        <dc:type
           rdf:resource="http://purl.org/dc/dcmitype/StillImage" />
        <dc:title></dc:title>
      </cc:Work>
    </rdf:RDF>
  </metadata>
  <g
     inkscape:label="Layer 1"
     inkscape:groupmode="layer"
     id="layer1"
     transform="translate(-363.53137,-520.86918)">
    <path
       id="path3618"
       style="fill:#000000;fill-opacity:1;fill-rule:evenodd;stroke:none;display:inline"
       d="m 375,543.75623 c 0,0 3.22681,0.18916 3.52601,0.0444 0.35821,-0.17333 0.43298,-1.17578 0.19302,-1.44773 -0.14477,-0.16407 -0.57908,-0.45362 -1.14852,-0.83968 -0.41541,-0.28163 -1.05202,-0.41501 -1.07132,-0.66595 -0.0193,-0.25094 0.23164,-1.88233 0.30885,-3.38797 0.0772,-1.50564 0.1205,-2.29706 0.1205,-2.29706 0,0 1.96423,0.0579 2.65914,0.19303 1.17749,0.27024 6.69589,2.30521 6.81397,2.08804 0.18946,-0.34846 -0.0579,-2.29706 -0.30885,-2.58661 -0.25093,-0.28955 -9.10966,-5.6012 -9.18688,-5.79423 -0.0772,-0.19303 0.0179,-3.38683 -0.40673,-5.20131 -0.42467,-1.81449 -1.08097,-2.99198 -1.49919,-2.99198 -0.41822,0 -1.07453,1.17749 -1.49919,2.99198 -0.42466,1.81448 -0.32952,5.00828 -0.40674,5.20131 -0.0772,0.19303 -8.93594,5.50468 -9.18688,5.79423 -0.25094,0.28955 -0.49831,2.23815 -0.30885,2.58661 0.11808,0.21717 5.63649,-1.8178 6.81398,-2.08804 0.69491,-0.13513 2.65914,-0.19303 2.65914,-0.19303 0,0 0.0433,0.79142 0.1205,2.29706 0.0772,1.50564 0.32815,3.13703 0.30885,3.38797 -0.0193,0.25094 -0.65591,0.38432 -1.07132,0.66595 -0.56945,0.38606 -1.00376,0.67561 -1.14853,0.83968 -0.23995,0.27195 -0.16518,1.2744 0.19303,1.44773 0.29919,0.14477 3.52601,-0.0444 3.52601,-0.0444 z"
       sodipodi:nodetypes="csssssccsssscssssccsssssc"
       inkscape:connector-curvature="0" />
  </g>
</svg>
