<?xml version="1.0" encoding="UTF-8" standalone="no"?>
<!-- Created with Inkscape (http://www.inkscape.org/) -->

<svg
   xmlns:dc="http://purl.org/dc/elements/1.1/"
   xmlns:cc="http://creativecommons.org/ns#"
   xmlns:rdf="http://www.w3.org/1999/02/22-rdf-syntax-ns#"
   xmlns:svg="http://www.w3.org/2000/svg"
   xmlns="http://www.w3.org/2000/svg"
   xmlns:sodipodi="http://sodipodi.sourceforge.net/DTD/sodipodi-0.dtd"
   xmlns:inkscape="http://www.inkscape.org/namespaces/inkscape"
   width="744.09448819"
   height="1052.3622047"
   id="svg4078"
   version="1.1"
   inkscape:version="0.48.0 r9654"
   sodipodi:docname="New document 41">
  <defs
     id="defs4080" />
  <sodipodi:namedview
     id="base"
     pagecolor="#ffffff"
     bordercolor="#666666"
     borderopacity="1.0"
     inkscape:pageopacity="0.0"
     inkscape:pageshadow="2"
     inkscape:zoom="0.35"
     inkscape:cx="375"
     inkscape:cy="520"
     inkscape:document-units="px"
     inkscape:current-layer="layer1"
     showgrid="false"
     inkscape:window-width="452"
     inkscape:window-height="413"
     inkscape:window-x="820"
     inkscape:window-y="561"
     inkscape:window-maximized="0" />
  <metadata
     id="metadata4083">
    <rdf:RDF>
      <cc:Work
         rdf:about="">
        <dc:format>image/svg+xml</dc:format>
        <dc:type
           rdf:resource="http://purl.org/dc/dcmitype/StillImage" />
        <dc:title></dc:title>
      </cc:Work>
    </rdf:RDF>
  </metadata>
  <g
     inkscape:label="Layer 1"
     inkscape:groupmode="layer"
     id="layer1">
    <g
       style="fill:#000000;stroke:none;display:inline"
       id="g3666"
       transform="matrix(0.22091824,0,0,0.22091824,311.9231,439.06646)">
      <rect
         ry="2.9116163"
         y="407.36218"
         x="262.47467"
         height="70"
         width="15"
         id="rect3668"
         style="fill:#000000;fill-opacity:1;fill-rule:nonzero;stroke:none;stroke-width:0.40000001;marker:none;visibility:visible;display:inline;overflow:visible;enable-background:accumulate" />
      <path
         sodipodi:nodetypes="ccccccccccccccccc"
         id="path3670"
         d="m 257.9948,372.36218 3.0013,0 0.004,30 6,0 0,-30 6.0013,0 -10e-4,30 6,0 0,-30 3.0052,0 c 1.65912,0 2.9948,1.11307 2.9948,2.49567 l 0,40.50433 c 0,1.3826 -3.34088,4 -5,4 l -20,0 c -1.65912,0 -5,-2.6174 -5,-4 l 0,-40.50433 c 0,-1.3826 1.33568,-2.49567 2.9948,-2.49567 z"
         style="fill:#000000;fill-opacity:1;fill-rule:nonzero;stroke:none;stroke-width:0.40000001;marker:none;visibility:visible;display:inline;overflow:visible;enable-background:accumulate"
         inkscape:connector-curvature="0" />
      <rect
         ry="2.9116163"
         y="407.36218"
         x="300"
         height="70"
         width="15"
         id="rect3672"
         style="fill:#000000;fill-opacity:1;fill-rule:nonzero;stroke:none;stroke-width:0.40000001;marker:none;visibility:visible;display:inline;overflow:visible;enable-background:accumulate" />
      <path
         sodipodi:nodetypes="ccccccccc"
         id="path3674"
         d="m 305.50338,367.2555 6.40592,0 c 2.28979,0 4.1332,2.27757 4.1332,5.10668 l 0,54.89334 c 0,2.82909 -1.84341,5.10666 -4.1332,5.10666 l -12.81183,0 c -2.28979,0 -4.1332,-2.27757 -4.1332,-5.10666 l 0,-20.93601 c 0,-26.04268 5.26956,-39.06401 10.53911,-39.06401 z"
         style="fill:#000000;fill-opacity:1;fill-rule:nonzero;stroke:none;stroke-width:0.40000001;marker:none;visibility:visible;display:inline;overflow:visible;enable-background:accumulate"
         inkscape:connector-curvature="0" />
    </g>
  </g>
</svg>
