<?xml version="1.0" encoding="UTF-8" standalone="no"?>
<!-- Created with Inkscape (http://www.inkscape.org/) -->

<svg
   xmlns:dc="http://purl.org/dc/elements/1.1/"
   xmlns:cc="http://creativecommons.org/ns#"
   xmlns:rdf="http://www.w3.org/1999/02/22-rdf-syntax-ns#"
   xmlns:svg="http://www.w3.org/2000/svg"
   xmlns="http://www.w3.org/2000/svg"
   xmlns:sodipodi="http://sodipodi.sourceforge.net/DTD/sodipodi-0.dtd"
   xmlns:inkscape="http://www.inkscape.org/namespaces/inkscape"
   width="17.72777"
   height="23.142401"
   id="svg4246"
   version="1.1"
   inkscape:version="0.48.0 r9654"
   sodipodi:docname="New document 49">
  <defs
     id="defs4248" />
  <sodipodi:namedview
     id="base"
     pagecolor="#ffffff"
     bordercolor="#666666"
     borderopacity="1.0"
     inkscape:pageopacity="0.0"
     inkscape:pageshadow="2"
     inkscape:zoom="0.35"
     inkscape:cx="-240.34919"
     inkscape:cy="56.704367"
     inkscape:document-units="px"
     inkscape:current-layer="layer1"
     showgrid="false"
     fit-margin-top="0"
     fit-margin-left="0"
     fit-margin-right="0"
     fit-margin-bottom="0"
     inkscape:window-width="452"
     inkscape:window-height="413"
     inkscape:window-x="820"
     inkscape:window-y="561"
     inkscape:window-maximized="0" />
  <metadata
     id="metadata4251">
    <rdf:RDF>
      <cc:Work
         rdf:about="">
        <dc:format>image/svg+xml</dc:format>
        <dc:type
           rdf:resource="http://purl.org/dc/dcmitype/StillImage" />
        <dc:title></dc:title>
      </cc:Work>
    </rdf:RDF>
  </metadata>
  <g
     inkscape:label="Layer 1"
     inkscape:groupmode="layer"
     id="layer1"
     transform="translate(-615.34919,-565.92415)">
    <path
       style="font-size:104.3145752px;font-style:normal;font-variant:normal;font-weight:normal;font-stretch:normal;text-align:start;line-height:125%;writing-mode:lr-tb;text-anchor:start;fill:#000000;fill-opacity:1;stroke:none;display:inline;font-family:Sans;-inkscape-font-specification:Sans"
       d="m 615.3492,589.06655 0,-23.1424 7.49839,0 c 2.84148,3e-5 4.69371,0.11579 5.5567,0.3473 1.32601,0.34731 2.4363,1.10505 3.33086,2.27319 0.89452,1.15767 1.3418,2.65735 1.34181,4.49904 -10e-6,1.42076 -0.25785,2.61524 -0.77352,3.58344 -0.51569,0.96822 -1.17345,1.73121 -1.97325,2.28898 -0.78932,0.54726 -1.59441,0.91034 -2.41527,1.08924 -1.11557,0.22101 -2.73102,0.33152 -4.84634,0.33151 l -3.04671,0 0,8.7297 -4.67268,0 m 4.67268,-19.22745 0,6.56701 2.55734,0 c 1.8417,2e-5 3.07302,-0.12101 3.69395,-0.36308 0.6209,-0.24204 1.10501,-0.6209 1.45232,-1.1366 0.3578,-0.51566 0.53672,-1.11553 0.53672,-1.79961 0,-0.84191 -0.24733,-1.53649 -0.74195,-2.08376 -0.49463,-0.54723 -1.12081,-0.88927 -1.87854,-1.0261 -0.55778,-0.10522 -1.67859,-0.15784 -3.36243,-0.15786 l -2.25741,0"
       id="path3704"
       inkscape:connector-curvature="0" />
  </g>
</svg>
